<?xml version="1.0" encoding="UTF-8"?><svg id="Layer_2" xmlns="http://www.w3.org/2000/svg" viewBox="0 0 154.81 75.32"><defs><style>.cls-1{fill:#6ac537;}.cls-2{fill:#717476;}</style></defs><g id="Layer_1-2"><g><path id="path3015" class="cls-1" d="M100.93,75.22c-.06-.15,.2-.89,.3-1.09,1.01-1.88,4.01-12,4.62-15.55,.25-1.48,.74-3.06,.94-3.06,.08,0,.51-.34,.95-.76s1.34-1.21,1.99-1.75,1.54-1.27,1.96-1.62c1.1-.91,2.02-1.56,2.73-1.93,.34-.18,.62-.39,.62-.47,0-.16,3.67-2.66,3.91-2.66,.08,0,.4-.21,.71-.47,1.35-1.14,9.64-5.31,11.13-5.6,.34-.07,.8-.23,1.01-.37,.59-.38,4.76-1.53,6.89-1.91,3.15-.56,7.61-.38,8.41,.33,.1,.09,.3,.16,.45,.16,.33,0,2.13,.89,2.52,1.25,.16,.14,.71,.63,1.23,1.09,2.71,2.38,3.92,6.79,3.39,12.41-.23,2.44-.84,6.41-1.18,7.71-.28,1.06-.72,.92-1.52-.47-2.1-3.7-5.78-5.89-9.86-5.89-1.58,0-5.1,.51-7.27,1.06-10.39,2.62-21.18,8.55-30.12,16.53-1.19,1.06-3.63,3.11-3.73,3.11s1.75-1.74,1.75-1.59-.17,.46-.85,.99c-.46,.36-.85,.88-.97,.56h0ZM3.9,56.85c-1.48-.46-2.84-2.3-3.45-4.69-.3-1.18-.35-2.45-.42-10.61-.04-5.1-.03-9.46,.03-9.69,.15-.6,1.05-1.53,1.93-1.99,.74-.39,1.01-.4,10-.4h9.24v-.6c0-1.03-.9-2.4-1.9-2.89-.85-.42-1.07-.43-6.62-.46-3.16-.02-5.89-.04-6.08-.05-.59-.03-.45-1.37,.22-2.01,.79-.76,1.52-.86,6.18-.87,5.98-.02,7.99,.33,9.54,1.66,1.14,.98,1.72,2.3,1.72,3.93v1.29h3.61l.11-1.1c.29-2.78,1.22-4.22,3.26-5.04l1.15-.46h17.55l.46,.54c.32,.37,.46,.77,.46,1.3,0,.64-.08,.79-.49,.95-.29,.11-3.88,.19-8.76,.19-4.55,0-8.6,.08-9,.18-1.26,.3-2.04,1.36-2.04,2.78v.67l8.95,.06,8.95,.06,.77,.5c1.08,.71,1.39,1.11,1.82,2.34,.36,1.01,.38,1.61,.38,10.44,0,10.38,.05,9.95-1.23,9.71-.71-.13-1.57-.99-1.73-1.71-.05-.23-.11-1.97-.14-3.86-.05-3.37-.06-3.46-.57-4.24-1.52-2.33-2.99-2.12-4.31,.61-.37,.77-.79,1.44-.94,1.5-.36,.14-1.03-.55-1.03-1.04,0-.46-.66-1.82-1.12-2.29-.87-.9-1.88-.92-2.91-.06-.91,.76-1.2,1.51-1.22,3.12-.01,1.12,.07,1.58,.38,2.11,.51,.86,1.77,1.56,2.84,1.58,1.11,.02,1.35,.39,1.05,1.63-.35,1.42-.63,1.64-1.99,1.53-2.46-.2-4.28-1.92-5.06-4.78-.35-1.3-.17-3.99,.37-5.38,.58-1.51,2.11-3.05,3.32-3.35,2.13-.54,3.69-.14,4.93,1.25l.65,.73,.51-.96c.43-.81,.63-.99,1.34-1.21,1.07-.32,1.91-.09,2.94,.81l.77,.67,.06-2.14c.07-2.71-.06-3.64-.63-4.3l-.45-.52-8.27-.05-8.27-.05,.15,.53c.08,.29,.18,4.86,.22,10.15l.07,9.62-.47,.12c-.9,.23-2.05-.45-2.46-1.45-.12-.29-.22-3.74-.26-8.89-.04-5.97-.13-8.57-.29-8.96-.45-1.09-.58-1.11-9.02-1.11h-7.72l.04,7.04c.02,3.87,.09,7.74,.16,8.6,.11,1.49,.14,1.58,.64,1.75,.53,.18,3.06-.23,3.27-.54,.05-.08,.37-.28,.7-.45,1.26-.64,3.02-2.35,3.58-3.45,.46-.91,.53-1.23,.43-1.98-.27-2-1.38-2.65-3.93-2.32-.41,.05-.49-.05-.72-.9-.38-1.43-.24-1.74,.91-2.02,.55-.13,1.56-.19,2.29-.14,1.17,.08,1.43,.18,2.35,.88,.57,.43,1.24,1.11,1.49,1.51,.41,.66,.45,.95,.45,2.93s-.04,2.28-.56,3.34c-.88,1.79-2.99,3.74-5.15,4.78-1.69,.81-2.33,1-4.82,1.43-2.38,.41-2.95,.4-3.51-.08l-.51-.44-.1-9.35c-.07-6.82-.16-9.46-.33-9.75-.37-.65-1.17-.86-3.03-.8l-1.71,.06-.05,8.04c-.06,9.6,.08,11.61,.91,12.82,.7,1.02,1.32,1.25,3.27,1.25,1.78,0,2.07,.21,1.66,1.18-.49,1.15-.95,1.4-2.69,1.44-.86,.02-1.82-.04-2.13-.14Zm103.79-14.6c-.06-.45-.15-1.55-.22-2.44-.18-2.47-.62-5.5-1.35-9.08-.36-1.78-.6-3.43-.55-3.66,.17-.67,4.38-4.69,7.08-6.75,2.83-2.16,4.56-3.26,7.13-4.54,2.56-1.28,5.34-2.24,7.7-2.69,2.51-.47,6.39-.49,8.04-.04,2.86,.78,5.28,2.33,7.78,4.98,1.55,1.65,3.71,4.45,3.71,4.82,0,.12,.24,.49,.54,.82,.55,.61,3.6,6.78,3.71,7.44,.12,.71-.56-.13-1.49-1.19-.97-1.12-2.66-2.42-4.03-3.11-3.45-1.74-8.43-1.6-13.95,.39-1.16,.42-2.28,.81-2.49,.87s-.43,.17-.48,.23-.77,.45-1.59,.84c-4.53,2.19-11.34,6.93-16.64,11.6-1.44,1.27-2.67,2.31-2.72,2.31s-.14-.37-.19-.81Zm-6.54-26.97c-.43-1.36-2.66-5.56-4.59-8.66-.63-1.02-1.29-2.11-1.47-2.43-.17-.32-.45-.69-.61-.81-.16-.12-.47-.57-.69-.99-.38-.72-.38-.78-.06-1.09,.21-.21,1.2-.48,2.73-.75,3-.53,10.09-.73,13.2-.38,4.69,.53,9.33,1.58,12.31,2.79,.51,.21,.4,.65-.19,.78-1.6,.37-4.1,1.15-5.56,1.74-.92,.37-1.93,.77-2.24,.9-1.18,.46-5.59,3.22-6.51,4.07-.21,.2-.91,.81-1.56,1.37s-1.72,1.65-2.39,2.44c-.96,1.12-1.33,1.43-1.73,1.43-.36,0-.56-.12-.65-.41h0Z"/><path class="cls-2" d="M93.33,35.02l-1.17-.32-.13-.87c-.07-.48-.18-1.04-.25-1.25-.11-.36-.01-.38,2.13-.45,2.92-.1,3.79-.53,4.17-2.07l.11-.48h-23.45l-.24-1.67c-.29-2-.55-2.55-1.7-3.56-1.7-1.5-3.83-1.84-10.39-1.69-3.95,.09-4.73,.16-5.21,.45-.58,.34-.86,1.09-.73,2l.07,.46,5.52,.03c7.11,.04,7.48,.08,8.39,1.04,.68,.71,1.16,2.04,.96,2.62-.07,.19-2.63,.25-11.89,.27-6.49,.01-11.59,.08-11.32,.14,1.15,.29,2.68,1.56,2.68,2.22,0,.21,.66,.27,3.23,.32,2.86,.05,3.29,.1,3.64,.43,.77,.7,.83,1.5,.76,10.73-.04,4.85,0,8.93,.1,9.07,.08,.14,.34,.33,.57,.42,.69,.28,4.11-.2,6.25-.9,3.14-1.02,5.73-3.12,6.95-5.61,1.12-2.29,.89-5.47-.48-6.88-1.12-1.16-1.95-1.58-3.26-1.69-1.18-.1-3.3,.21-3.48,.51-.08,.13,.4,2.51,.54,2.65,.04,.04,.45-.03,.92-.14,1.08-.27,2.19,0,2.83,.68,.65,.69,.77,2.59,.23,3.65-.71,1.37-2.87,3.21-4.65,3.95-1.05,.44-2.61,.77-3.03,.63-.38-.12-.39-.3-.45-8.49-.03-4.6-.13-8.51-.22-8.7-.16-.31,.54-.33,13.3-.33,14.9,0,14.03-.07,14.35,1.27,.27,1.16,.25,1.18-.92,1.3-2.69,.29-5.24,.75-6.64,1.19-1.22,.39-1.71,.66-2.5,1.42-1.39,1.31-2.04,2.59-2.16,4.22-.26,3.62,1.57,6.88,4.49,7.99,1.34,.51,4.47,1.14,6.46,1.29,1.46,.11,1.59,.16,1.87,.66,.37,.65,1.02,1.09,1.83,1.25l.61,.13v-15.41l.7,.11c.93,.16,1.67,.9,2.05,2.08,.37,1.15,.4,2.25,.09,3.59-.28,1.21-.11,1.45,.81,1.13,.89-.31,1.69-.92,2.01-1.53,.74-1.43,.48-3.52-.68-5.3-.84-1.31-1.9-2.03-3.71-2.53Zm-4.18,7.61l-.05,5.12-.58,.03c-.82,.05-3.88-.43-5.2-.81-1.4-.4-2.97-1.86-3.3-3.05-.27-.95-.27-2.1-.02-2.96,.27-.93,1.62-2.24,2.67-2.59,1.27-.42,4.09-.87,5.4-.87h1.12l-.05,5.12Z"/></g></g></svg>