<?xml version="1.0" encoding="UTF-8"?><svg id="Layer_2" xmlns="http://www.w3.org/2000/svg" viewBox="0 0 112.76 90.47"><defs><style>.cls-1{fill:#c30d42;}.cls-2{fill:#7b1b67;}.cls-3{fill:#fff;stroke:#fff;stroke-miterlimit:1.76;stroke-width:1.76px;}.cls-4{fill:#e20612;}.cls-5{fill:#fcb833;}.cls-6{fill:#ed3d7f;}.cls-7{fill:#f05a22;}.cls-8{fill:#f6921e;}</style></defs><g id="Layer_1-2"><g id="layer1"><g id="g62238"><g id="g35226" transform="matrix(0.2629087,0,0,0.2629087,-0.25629399,-0.88194024)"><path id="path35222" class="cls-4" d="M41.05,53.57c-2.92-1.23-3.59-2.69-3.81-3.59v-.22h0v-.22h0v-.45h0c.11-.56,.34-1.12,.67-1.68l.11-.11c1.57-2.24,5.27-4.37,9.76-5.72,3.14-.9,6.28-1.23,8.75-1.01,2.47,.22,3.93,1.01,4.26,2.24,.34,1.23-.79,2.92-3.14,4.49l-.11,.11,2.02,1.46s2.02,1.57,4.26-.67c2.13-2.36,2.92-4.82,2.36-6.84-.67-2.47-3.14-4.26-6.84-5.05-3.7-.79-8.3-.56-12.9,.79-4.6,1.23-8.64,3.48-11.44,6.06-2.8,2.69-3.93,5.5-3.25,7.85,.22,1.01,.9,1.91,1.79,2.69H3.25c-.45,0-1.01,.22-1.46,.67-1.12,1.12-1.79,3.25-1.79,3.48v.11H21.98v1.23c-.67,.11-11.89,2.92-18.28,9.42-.9,.9-1.01,2.24-.34,3.36,2.36,3.36,8.52,9.76,23.78,14.24h.11v-28.38h8.64v24.34c0,.56,.34,1.23,.9,1.79,1.46,1.57,4.15,2.24,4.26,2.24h.11v-28.38h24.23v1.35c-.67,.11-11.89,2.92-18.28,9.42-.9,.9-1.01,2.24-.34,3.36,2.36,3.36,8.52,9.76,23.78,14.24h.11v-28.38h0c.45,0,1.01-.22,1.46-.67,1.01-1.01,1.68-2.92,1.79-3.48v-.11H41.05Zm-19.07,25.24c-1.01-.34-6.95-2.58-11.66-7.18-.22-.11-.22-.34-.22-.56s.11-.45,.22-.56c1.57-1.46,5.94-4.94,11.66-5.72v14.02Zm43.52,0c-1.01-.34-6.95-2.58-11.66-7.18-.11-.11-.22-.34-.22-.56s.11-.45,.22-.56c1.57-1.46,5.94-4.94,11.66-5.72v14.02Z"/><ellipse id="ellipse35224" class="cls-4" cx="11.44" cy="86.88" rx="3.48" ry="3.59"/></g><g id="g47275" transform="matrix(0.11652225,0,0,0.11652225,9.4451713,-10.524651)"><path id="path27432" class="cls-3" d="M74.03,.76V22.73l18.93,10.98-18.93,10.98,18.93,10.98,18.93-10.98V22.73l-18.93-10.98L74.03,.76Z"/><g id="g47244" transform="translate(7.80269,-238.79952)"><path id="path15387" class="cls-6" d="M92.46,33.42l-18.93,10.98,18.93,10.98v-21.97Z"/><path id="path18417" class="cls-1" d="M92.46,33.42l18.93,10.98-18.93,10.98v-21.97Z"/><path id="path20020" class="cls-2" d="M111.39,22.44l-18.93,10.98,18.93,10.98V22.44Z"/><path id="path22247" class="cls-7" d="M92.46,11.46l18.93,10.98-18.93,10.98V11.46Z"/><path id="path22249" class="cls-8" d="M92.46,11.46l-18.93,10.98,18.93,10.98V11.46Z"/><path id="path24086" class="cls-5" d="M73.54,.47l18.93,10.98-18.93,10.98V.47Z"/></g><g id="g47258" transform="translate(7.80269,-238.79952)"><path id="path47246" class="cls-6" d="M92.46,33.42l-18.93,10.98,18.93,10.98v-21.97Z"/><path id="path47248" class="cls-1" d="M92.46,33.42l18.93,10.98-18.93,10.98v-21.97Z"/><path id="path47250" class="cls-2" d="M111.39,22.44l-18.93,10.98,18.93,10.98V22.44Z"/><path id="path47252" class="cls-7" d="M92.46,11.46l18.93,10.98-18.93,10.98V11.46Z"/><path id="path47254" class="cls-8" d="M92.46,11.46l-18.93,10.98,18.93,10.98V11.46Z"/><path id="path47256" class="cls-5" d="M73.54,.47l18.93,10.98-18.93,10.98V.47Z"/></g></g></g></g></g></svg>