<?xml version="1.0" encoding="UTF-8"?><svg id="Layer_2" xmlns="http://www.w3.org/2000/svg" viewBox="0 0 238.94 51.84"><defs><style>.cls-1{fill:#085eaa;}</style></defs><g id="Layer_1-2"><g><g><path class="cls-1" d="M224.51,1.94h1.56l-.83-.52-1.34-.45-1.49-.89-.42-.07h-2.79c1.86,.38,3.64,1.04,5.31,1.94"/><polygon class="cls-1" points="77.62 1.94 76.28 0 34.71 0 34.71 1.94 77.62 1.94"/><polygon class="cls-1" points="137.31 1.94 137 0 125.72 0 125.26 1.94 137.31 1.94"/><polygon class="cls-1" points="174.58 1.42 173.54 1.94 196.48 1.94 196.48 .07 196.48 0 177.74 0 177.42 .07 174.58 1.42"/><polygon class="cls-1" points="29.5 .07 29.27 0 0 0 0 1.94 31.78 1.94 30.69 .97 29.5 .07"/><polygon class="cls-1" points="156.89 1.94 156.42 0 145.1 0 144.68 1.94 156.89 1.94"/><path class="cls-1" d="M204.23,1.94h2c1.67-.9,3.45-1.55,5.31-1.94h-1.49l-3.87,.97-1.94,.97Z"/><polygon class="cls-1" points="117.53 1.94 117.53 0 96.94 0 95.55 1.94 117.53 1.94"/><path class="cls-1" d="M219.2,0h-7.67c-1.86,.38-3.64,1.04-5.31,1.94h18.28c-1.67-.9-3.45-1.55-5.31-1.94"/><polygon class="cls-1" points="33.52 4.39 33.36 4.17 0 4.17 0 6.11 34.44 6.11 34.26 5.59 33.52 4.39"/><path class="cls-1" d="M199,6.11h1.76c.67-.69,1.37-1.34,2.11-1.94h-1.78l-.87,.97-1.21,.97Z"/><polygon class="cls-1" points="34.71 4.17 34.71 6.11 80.5 6.11 79.16 4.17 34.71 4.17"/><polygon class="cls-1" points="137.98 6.11 137.67 4.17 124.73 4.17 124.28 6.11 137.98 6.11"/><path class="cls-1" d="M229.97,6.11h2.4l-1.78-.97-.97-.97h-1.76c.73,.59,1.44,1.24,2.1,1.94"/><polygon class="cls-1" points="117.53 4.17 93.94 4.17 92.55 6.11 117.53 6.11 117.53 4.17"/><polygon class="cls-1" points="157.9 6.11 157.43 4.17 144.21 4.17 143.79 6.11 157.9 6.11"/><polygon class="cls-1" points="168.33 5.59 168.04 6.11 196.48 6.11 196.48 4.4 196.48 4.17 169.96 4.17 169.67 4.4 168.33 5.59"/><path class="cls-1" d="M200.75,6.11h29.22c-.67-.69-1.37-1.34-2.1-1.94h-25.01c-.74,.59-1.43,1.24-2.1,1.94"/><rect class="cls-1" x="107.25" y="8.19" width="10.28" height="1.94"/><polygon class="cls-1" points="0 8.19 0 10.13 83.27 10.13 81.93 8.19 0 8.19"/><path class="cls-1" d="M233.13,10.13h2.66l-1.16-1.94h-2.86c.48,.62,.93,1.26,1.36,1.94"/><polygon class="cls-1" points="158.87 10.13 158.4 8.19 143.35 8.19 142.94 10.13 158.87 10.13"/><path class="cls-1" d="M196.48,9.16v-.97h-29.97l-.42,.67-.71,1.27h32.21c.43-.67,.88-1.32,1.35-1.94h-2.47v.97Z"/><polygon class="cls-1" points="138.32 8.19 123.79 8.19 123.33 10.13 138.62 10.13 138.32 8.19"/><polygon class="cls-1" points="106.36 8.19 91.05 8.19 89.66 10.13 104.98 10.13 106.36 8.19"/><g><path class="cls-1" d="M197.6,10.13h35.54c-.43-.67-.88-1.32-1.35-1.94h-32.83c-.48,.62-.93,1.26-1.36,1.94"/><path class="cls-1" d="M180.02,14.15l2.09-1.1h.04l3.28-.76h.02s.38-.03,.93-.08h-21.99l-.73,1.94h16.37Z"/></g><polygon class="cls-1" points="26.09 14.15 47.07 14.15 47.07 12.22 25.29 12.22 25.77 13.18 26.09 14.15"/><polygon class="cls-1" points="86.04 14.15 84.7 12.22 70.76 12.22 71.97 14.15 86.04 14.15"/><polygon class="cls-1" points="103.51 12.22 88.16 12.22 86.77 14.15 102.13 14.15 103.51 12.22"/><rect class="cls-1" x="107.25" y="12.21" width="10.28" height="1.94"/><polygon class="cls-1" points="139.27 14.15 138.96 12.22 122.84 12.22 122.39 14.15 139.27 14.15"/><rect class="cls-1" x="0" y="12.22" width="11.92" height="1.94"/><path class="cls-1" d="M194.82,13.26l-.55,.89h1.22c.28-.66,.58-1.31,.9-1.94h-1.05c-.16,.32-.52,1.04-.52,1.05"/><polygon class="cls-1" points="142.08 14.15 159.84 14.15 159.37 12.22 142.49 12.22 142.08 14.15"/><g><path class="cls-1" d="M235.23,14.15h1.79l-.32-.97-.12-.97h-2.25c.32,.63,.62,1.27,.9,1.94"/><path class="cls-1" d="M223.33,14.15h11.9c-.28-.66-.58-1.31-.9-1.94h-13.44c.88,.54,1.7,1.18,2.45,1.94"/><path class="cls-1" d="M206.68,14.15c.75-.75,1.57-1.4,2.45-1.94h-12.72c-.32,.63-.63,1.27-.9,1.94h11.18Z"/><path class="cls-1" d="M194.05,18.47c.16-.66,.35-1.3,.56-1.94h-1.77l-.65,1.94h1.85Z"/></g><polygon class="cls-1" points="175.15 18.47 176.55 16.67 176.56 16.65 176.58 16.64 176.72 16.54 162.76 16.54 162.03 18.47 175.15 18.47"/><rect class="cls-1" x="107.25" y="16.54" width="10.28" height="1.94"/><polygon class="cls-1" points="160.88 18.47 160.41 16.54 141.57 16.54 141.16 18.47 160.88 18.47"/><polygon class="cls-1" points="139.65 16.54 121.83 16.54 121.37 18.47 139.96 18.47 139.65 16.54"/><polygon class="cls-1" points="100.44 16.54 73.45 16.54 74.66 18.47 99.07 18.47 100.44 16.54"/><polygon class="cls-1" points="25.9 16.54 25.77 16.76 25.18 18.25 24.76 18.47 47.07 18.47 47.07 16.54 25.9 16.54"/><rect class="cls-1" x="0" y="16.54" width="11.92" height="1.94"/><g><path class="cls-1" d="M236.68,18.47h1.41l-.4-1.94h-1.56c.2,.63,.39,1.28,.55,1.94"/><path class="cls-1" d="M226.31,18.47h10.37c-.16-.66-.35-1.3-.56-1.94h-10.89c.4,.61,.76,1.25,1.08,1.94"/><path class="cls-1" d="M194.05,18.47h9.65c.31-.68,.68-1.32,1.08-1.94h-10.17c-.21,.63-.39,1.28-.56,1.94"/></g><polygon class="cls-1" points="97.49 20.71 76.05 20.71 77.26 22.64 96.12 22.64 97.49 20.71"/><path class="cls-1" d="M237.42,22.64h1.52v-1.57l-.13-.37h-1.65c.11,.64,.19,1.28,.26,1.94"/><rect class="cls-1" x="107.25" y="20.71" width="10.28" height="1.94"/><polygon class="cls-1" points="173.69 21.65 173.69 21.64 173.7 21.63 174.01 20.71 140.68 20.71 140.47 21.67 140.32 20.71 120.84 20.71 120.39 22.64 173.52 22.64 173.69 21.65"/><rect class="cls-1" x="35.45" y="20.71" width="31.28" height="1.94"/><path class="cls-1" d="M190.81,22.64h2.51c.07-.65,.15-1.3,.26-1.94h-2.12l-.65,1.94Z"/><polygon class="cls-1" points="0 20.71 0 22.64 33.56 22.64 35.15 20.71 0 20.71"/><g><path class="cls-1" d="M193.31,22.64h9.09c.12-.67,.28-1.31,.47-1.94h-9.3c-.11,.64-.19,1.28-.26,1.94"/><path class="cls-1" d="M227.61,22.64h9.8c-.07-.65-.15-1.3-.26-1.94h-10.01c.19,.63,.35,1.27,.47,1.94"/></g><polygon class="cls-1" points="94.53 24.88 78.65 24.88 79.25 25.85 78.52 26.81 94.51 26.81 93.85 25.85 94.53 24.88"/><polygon class="cls-1" points="172.95 25.85 172.95 25.83 172.95 25.82 173.12 24.88 119.86 24.88 119.41 26.81 172.95 26.81 172.95 25.85"/><path class="cls-1" d="M190.67,25.85v.97h2.47c0-.27-.02-.54-.02-.8,0-.38,.01-.76,.02-1.13h-2.48v.97h0Z"/><rect class="cls-1" x="107.25" y="24.88" width="10.28" height="1.94"/><path class="cls-1" d="M237.6,26.01c0,.27-.01,.54-.02,.81h1.35v-1.94h-1.36c.01,.38,.02,.75,.02,1.13"/><rect class="cls-1" x="35.45" y="24.88" width="31.28" height="1.94"/><polygon class="cls-1" points="31.32 24.88 0 24.88 0 26.81 30.46 26.81 29.49 25.85 31.32 24.88"/><g><path class="cls-1" d="M227.89,25.82c0,.33-.02,.66-.04,.99h9.73c0-.27,.02-.54,.02-.81,0-.38-.01-.76-.02-1.13h-9.73c.02,.32,.04,.63,.04,.95"/><path class="cls-1" d="M193.13,26.01c0,.27,.01,.54,.02,.81h9.01c-.02-.33-.04-.66-.04-.99s.02-.63,.04-.95h-9.01c-.01,.38-.02,.75-.02,1.13"/></g><polygon class="cls-1" points="96.05 29.05 76.83 29.05 75.37 30.99 97.38 30.99 96.05 29.05"/><rect class="cls-1" x="35.45" y="29.05" width="31.28" height="1.94"/><polygon class="cls-1" points="0 29.05 0 30.99 34.44 30.99 32.68 29.05 0 29.05"/><polygon class="cls-1" points="173.53 30.98 172.96 29.32 172.95 29.3 172.95 29.27 172.95 29.05 150.21 29.05 150.66 30.98 173.53 30.98"/><rect class="cls-1" x="107.25" y="29.05" width="10.28" height="1.94"/><polygon class="cls-1" points="150.11 29.05 131.43 29.05 131.82 30.99 149.71 30.99 150.11 29.05"/><path class="cls-1" d="M237.2,30.98h1.36l.33-1.94h-1.45c-.06,.65-.15,1.3-.25,1.94"/><polygon class="cls-1" points="118.88 29.05 118.43 30.99 131.02 30.99 131.35 29.05 118.88 29.05"/><g><path class="cls-1" d="M190.67,29.25c.03,.11,.26,.98,.46,1.73h2.4c-.1-.64-.18-1.28-.25-1.94h-2.6v.2h0Z"/><path class="cls-1" d="M227.12,30.98h10.08c.1-.64,.18-1.28,.25-1.94h-9.85c-.12,.67-.29,1.31-.47,1.94"/><path class="cls-1" d="M193.53,30.98h9.36c-.19-.63-.35-1.27-.47-1.94h-9.13c.06,.65,.15,1.3,.25,1.94"/></g><polygon class="cls-1" points="149.27 33.07 132.24 33.07 132.63 35.01 148.87 35.01 149.27 33.07"/><polygon class="cls-1" points="85.65 34.78 85.81 35.01 100.14 35.01 98.81 33.07 73.79 33.07 72.33 35.01 85.52 35.01 85.65 34.78"/><polygon class="cls-1" points="174.45 33.66 174.44 33.64 174.25 33.07 151.14 33.07 151.59 35.01 175.5 35.01 174.47 33.68 174.45 33.66"/><rect class="cls-1" x="0" y="33.07" width="11.92" height="1.94"/><polygon class="cls-1" points="25.77 34.04 26.09 35.01 47.07 35.01 47.07 33.07 25.05 33.07 25.18 33.14 25.77 34.04"/><path class="cls-1" d="M236.27,35.01h1.09l.08-.22,.74-1.64v-.07h-1.4c-.15,.65-.32,1.3-.52,1.94"/><polygon class="cls-1" points="130.67 33.07 117.94 33.07 117.53 34.78 117.53 33.07 107.25 33.07 107.25 35.01 130.34 35.01 130.67 33.07"/><g><path class="cls-1" d="M192.15,34.73l.15,.28h2.15c-.19-.63-.36-1.28-.51-1.94h-2.25l.46,1.66Z"/><path class="cls-1" d="M194.45,35.01h10.26c-.39-.61-.75-1.26-1.06-1.94h-9.71c.15,.65,.32,1.3,.51,1.94"/><path class="cls-1" d="M225.3,35.01h10.98c.2-.63,.36-1.28,.52-1.94h-10.43c-.31,.68-.67,1.32-1.06,1.94"/><path class="cls-1" d="M234.56,39.33h.73l1.11-1.94h-.97c-.27,.66-.56,1.31-.87,1.94"/></g><polygon class="cls-1" points="129.93 37.39 107.25 37.39 107.25 39.33 129.6 39.33 129.93 37.39"/><polygon class="cls-1" points="25.9 37.39 25.77 37.61 25.18 39.1 24.8 39.33 47.07 39.33 47.07 37.39 25.9 37.39"/><rect class="cls-1" x="0" y="37.39" width="11.92" height="1.94"/><path class="cls-1" d="M193.55,37.39l.07,.14,1.32,1.79h1.21c-.31-.63-.6-1.27-.87-1.94h-1.74Z"/><polygon class="cls-1" points="179.28 38.49 179.26 38.48 177.86 37.39 152.15 37.39 152.6 39.33 181.7 39.33 179.3 38.5 179.28 38.49"/><polygon class="cls-1" points="133.11 37.39 133.5 39.33 147.97 39.33 148.38 37.39 133.11 37.39"/><polygon class="cls-1" points="101.78 37.39 87.49 37.39 88.86 39.33 103.11 39.33 101.78 37.39"/><g><path class="cls-1" d="M221.07,39.33h13.5c.31-.63,.6-1.27,.87-1.94h-12.01c-.72,.74-1.51,1.4-2.36,1.94"/><path class="cls-1" d="M206.58,37.39h-11.29c.27,.66,.56,1.31,.87,1.94h12.78c-.85-.54-1.64-1.19-2.36-1.94"/></g><polygon class="cls-1" points="147.54 41.41 133.92 41.41 134.31 43.35 147.14 43.35 147.54 41.41"/><polygon class="cls-1" points="0 41.41 0 43.35 80.62 43.35 81.76 41.41 0 41.41"/><g><path class="cls-1" d="M232.13,43.35h.85l1.11-1.94h-.67c-.41,.67-.84,1.31-1.29,1.94"/><path class="cls-1" d="M166.84,42.98l.31,.37h31.45c-.46-.62-.89-1.27-1.29-1.94h-31.39l.92,1.56Z"/></g><polygon class="cls-1" points="166.07 43.35 165.59 41.41 153.08 41.41 153.53 43.35 166.07 43.35"/><polygon class="cls-1" points="104.54 41.41 90.33 41.41 91.7 43.35 105.87 43.35 104.54 41.41"/><polygon class="cls-1" points="107.25 41.41 107.25 43.35 128.92 43.35 129.25 41.41 107.25 41.41"/><g><path class="cls-1" d="M198.6,43.35h33.53c.46-.62,.89-1.27,1.29-1.94h-36.11c.41,.67,.84,1.31,1.29,1.94"/><path class="cls-1" d="M228.12,47.64l1.29-.94,.97-.97h-.23c-.64,.68-1.32,1.32-2.03,1.91"/></g><polygon class="cls-1" points="78.07 47.67 79.21 45.73 35.45 45.73 35.45 47.67 78.07 47.67"/><polygon class="cls-1" points="134.79 45.73 135.18 47.67 146.24 47.67 146.65 45.73 134.79 45.73"/><path class="cls-1" d="M200.35,45.96l1.34,.87c-.38-.35-.75-.72-1.11-1.1h-.45l.22,.22Z"/><polygon class="cls-1" points="154.09 45.73 154.54 47.67 167.13 47.67 166.66 45.73 154.09 45.73"/><polygon class="cls-1" points="168.56 45.73 169.07 46.55 170.03 47.67 198.72 47.67 198.72 45.73 168.56 45.73"/><polygon class="cls-1" points="35.05 45.73 0 45.73 0 47.67 34.42 47.67 34.71 46.7 35.05 45.73"/><polygon class="cls-1" points="128.51 45.73 93.38 45.73 94.75 47.67 128.19 47.67 128.51 45.73"/><path class="cls-1" d="M201.69,46.83l1.29,.84h25.09l.04-.03c.71-.59,1.38-1.22,2.03-1.91h-29.56c.36,.38,.73,.74,1.11,1.1"/><polygon class="cls-1" points="96.33 49.9 97.69 51.84 127.48 51.84 127.81 49.9 96.33 49.9"/><path class="cls-1" d="M223.64,50.52l.84-.24,.51-.37h-.16c-.39,.22-.79,.42-1.19,.61"/><polygon class="cls-1" points="172.04 49.9 172.35 50.27 173.84 50.87 175.92 51.47 176.62 51.84 198.72 51.84 198.72 49.9 172.04 49.9"/><polygon class="cls-1" points="135.63 49.9 136.02 51.84 145.38 51.84 145.78 49.9 135.63 49.9"/><polygon class="cls-1" points="35.45 49.9 35.45 51.84 75.62 51.84 76.76 49.9 35.45 49.9"/><polygon class="cls-1" points="155.06 49.9 155.51 51.84 168.16 51.84 167.69 49.9 155.06 49.9"/><polygon class="cls-1" points="30.69 50.87 32.03 50.27 32.21 49.9 0 49.9 0 51.84 28.86 51.84 29.5 51.47 30.69 50.87"/><path class="cls-1" d="M214.21,51.77l6.11-.3,3.33-.95c.4-.19,.8-.4,1.19-.61h-17.97l2.13,.97,5.21,.9Z"/></g><polygon class="cls-1" points="71.73 37.39 70.27 39.33 84.18 39.33 85.32 37.39 71.73 37.39"/></g></g></svg>