<?xml version="1.0" encoding="UTF-8"?><svg id="Layer_2" xmlns="http://www.w3.org/2000/svg" viewBox="0 0 243.07 51.84"><defs><style>.cls-1{fill:#7fba00;}.cls-2{fill:#737373;}.cls-3{fill:#f25022;}.cls-4{fill:#ffb900;}.cls-5{fill:#00a4ef;}</style></defs><g id="Layer_1-2"><g><path class="cls-2" d="M101.09,10.37v31.1h-5.4V17.06h-.07l-9.65,24.41h-3.6l-9.86-24.41h-.07v24.41h-4.97V10.37h7.78l8.93,23.04h.14l9.43-23.04h7.34Zm4.46,2.38c0-.86,.29-1.58,.94-2.16,.65-.58,1.37-.86,2.23-.86,.94,0,1.73,.29,2.3,.86s.94,1.3,.94,2.16-.29,1.58-.94,2.16c-.65,.58-1.37,.86-2.3,.86s-1.66-.29-2.23-.86c-.58-.65-.94-1.37-.94-2.16Zm5.83,6.41v22.32h-5.26V19.15h5.26Zm15.91,18.5c.79,0,1.66-.14,2.59-.58,.94-.36,1.8-.86,2.59-1.44v4.9c-.86,.5-1.8,.86-2.88,1.08s-2.23,.36-3.53,.36c-3.31,0-5.98-1.01-7.99-3.1-2.09-2.09-3.1-4.75-3.1-7.92,0-3.6,1.08-6.55,3.17-8.86s5.04-3.46,8.93-3.46c1.01,0,2.02,.14,2.95,.36,1.01,.22,1.8,.58,2.38,.86v5.04c-.79-.58-1.66-1.08-2.45-1.37-.86-.29-1.73-.5-2.59-.5-2.09,0-3.74,.65-5.04,2.02s-1.87,3.17-1.87,5.47,.65,4.03,1.87,5.26c1.22,1.22,2.88,1.87,4.97,1.87Zm20.09-18.86c.43,0,.79,0,1.15,.07s.65,.14,.86,.22v5.33c-.29-.22-.65-.43-1.22-.58s-1.15-.29-1.94-.29c-1.3,0-2.38,.58-3.24,1.66s-1.37,2.74-1.37,5.04v11.23h-5.26V19.15h5.26v3.53h.07c.5-1.22,1.22-2.16,2.16-2.88,1.01-.65,2.16-1.01,3.53-1.01Zm2.3,11.88c0-3.67,1.08-6.62,3.1-8.78,2.09-2.16,4.97-3.24,8.64-3.24,3.46,0,6.19,1.01,8.14,3.1,1.94,2.09,2.95,4.9,2.95,8.42s-1.08,6.48-3.1,8.64c-2.09,2.16-4.9,3.24-8.5,3.24s-6.19-1.01-8.21-3.02c-2.02-2.09-3.02-4.9-3.02-8.35Zm5.47-.22c0,2.3,.5,4.1,1.58,5.33s2.59,1.87,4.54,1.87,3.38-.58,4.39-1.87c1.01-1.22,1.51-3.02,1.51-5.47s-.5-4.18-1.51-5.47c-1.01-1.22-2.52-1.87-4.32-1.87-1.94,0-3.38,.65-4.46,1.94-1.22,1.37-1.73,3.17-1.73,5.54Zm25.2-5.4c0,.72,.22,1.37,.72,1.8s1.51,.94,3.17,1.58c2.09,.86,3.6,1.8,4.39,2.81,.86,1.08,1.3,2.3,1.3,3.82,0,2.09-.79,3.74-2.45,5.04-1.58,1.3-3.82,1.87-6.55,1.87-.94,0-1.94-.14-3.1-.36s-2.09-.5-2.88-.86v-5.18c.94,.65,2.02,1.22,3.1,1.58s2.09,.58,3.02,.58c1.15,0,2.09-.14,2.59-.5,.58-.36,.86-.86,.86-1.66,0-.72-.29-1.3-.86-1.87-.58-.5-1.73-1.08-3.31-1.73-1.94-.79-3.31-1.73-4.1-2.74s-1.22-2.3-1.22-3.89c0-2.02,.79-3.67,2.38-4.97s3.67-1.94,6.19-1.94c.79,0,1.66,.07,2.59,.29s1.8,.43,2.45,.65v5.11c-.72-.43-1.51-.86-2.45-1.22s-1.87-.5-2.74-.5c-1.01,0-1.8,.22-2.3,.58-.5,.5-.79,1.01-.79,1.73Zm11.81,5.62c0-3.67,1.08-6.62,3.1-8.78,2.09-2.16,4.97-3.24,8.64-3.24,3.46,0,6.19,1.01,8.14,3.1,1.94,2.09,2.95,4.9,2.95,8.42s-1.08,6.48-3.1,8.64c-2.09,2.16-4.9,3.24-8.5,3.24s-6.19-1.01-8.21-3.02c-1.94-2.09-3.02-4.9-3.02-8.35Zm5.47-.22c0,2.3,.5,4.1,1.58,5.33s2.59,1.87,4.54,1.87,3.38-.58,4.39-1.87c1.01-1.22,1.51-3.02,1.51-5.47s-.5-4.18-1.51-5.47c-1.01-1.22-2.52-1.87-4.32-1.87-1.94,0-3.38,.65-4.46,1.94-1.15,1.37-1.73,3.17-1.73,5.54Zm34.85-6.98h-7.85v18h-5.33V23.47h-3.74v-4.32h3.74v-3.1c0-2.3,.79-4.25,2.3-5.76s3.46-2.23,5.83-2.23c.65,0,1.22,.07,1.73,.07s.94,.14,1.3,.29v4.54c-.14-.07-.5-.22-.94-.36-.43-.14-.94-.22-1.51-.22-1.08,0-1.94,.36-2.52,1.01s-.86,1.73-.86,3.02v2.66h7.85v-5.04l5.26-1.58v6.62h5.33v4.32h-5.33v10.44c0,1.37,.29,2.3,.72,2.88,.5,.58,1.3,.86,2.38,.86,.29,0,.65-.07,1.08-.22s.79-.29,1.08-.5v4.32c-.36,.22-.86,.36-1.66,.5-.79,.14-1.51,.22-2.3,.22-2.23,0-3.89-.58-4.97-1.73-1.08-1.15-1.66-2.95-1.66-5.33l.07-11.38h0Z"/><g><rect class="cls-3" width="24.62" height="24.62"/><rect class="cls-1" x="27.22" width="24.62" height="24.62"/><rect class="cls-5" y="27.22" width="24.62" height="24.62"/><rect class="cls-4" x="27.22" y="27.22" width="24.62" height="24.62"/></g></g></g></svg>