<?xml version="1.0" encoding="UTF-8"?><svg id="Layer_2" xmlns="http://www.w3.org/2000/svg" viewBox="0 0 142.9 75.32"><defs><style>.cls-1{fill:#39c5f3;}</style></defs><g id="Layer_1-2"><g><path class="cls-1" d="M6.21,29.88c0,1.72-1.39,3.11-3.1,3.11s-3.11-1.39-3.11-3.11v-6.51c0-1.71,1.4-3.1,3.11-3.1s3.1,1.39,3.1,3.1v6.51ZM23.3,14.83c0-1.72-1.4-3.12-3.12-3.12s-3.1,1.4-3.1,3.12v15.06c0,1.72,1.41,3.11,3.1,3.11s3.12-1.39,3.12-3.11V14.83ZM40.4,3.11c0-1.74-1.41-3.11-3.12-3.11s-3.1,1.37-3.1,3.11V36.09c0,1.7,1.39,3.11,3.1,3.11s3.12-1.41,3.12-3.11V3.11Zm17.07,11.72c0-1.72-1.39-3.12-3.1-3.12s-3.1,1.4-3.1,3.12v15.06c0,1.72,1.4,3.11,3.1,3.11s3.1-1.39,3.1-3.11V14.83Zm17.07,8.54c0-1.71-1.38-3.1-3.08-3.1s-3.12,1.39-3.12,3.1v6.51c0,1.72,1.41,3.11,3.12,3.11s3.08-1.39,3.08-3.11v-6.51Zm17.09-8.54c0-1.72-1.39-3.12-3.09-3.12s-3.09,1.4-3.09,3.12v15.06c0,1.72,1.37,3.11,3.09,3.11s3.09-1.39,3.09-3.11V14.83ZM108.74,3.11c0-1.74-1.39-3.11-3.1-3.11s-3.1,1.37-3.1,3.11V36.09c0,1.7,1.4,3.11,3.1,3.11s3.1-1.41,3.1-3.11V3.11Zm17.09,11.72c0-1.72-1.39-3.12-3.14-3.12s-3.1,1.4-3.1,3.12v15.06c0,1.72,1.39,3.11,3.1,3.11s3.14-1.39,3.14-3.11V14.83Zm17.06,8.54c0-1.71-1.38-3.1-3.09-3.1s-3.11,1.39-3.11,3.1v6.51c0,1.72,1.4,3.11,3.11,3.11s3.09-1.39,3.09-3.11v-6.51Z"/><path class="cls-1" d="M46.68,74.89h-6.28v-24.84h6.28v24.84Zm50.53-24.39c-.61-.17-2.8-.89-5.72-.89-7.64,0-13.25,5.44-13.25,12.87,0,7.99,6.21,12.85,13.25,12.85,2.77,0,4.93-.66,5.72-.88v-6.66c-.28,.15-2.33,1.32-5.29,1.32-4.17,0-6.86-2.95-6.86-6.62s2.8-6.62,6.86-6.62c3.01,0,5.03,1.18,5.29,1.31v-6.66Zm-65.43,0c-.58-.17-2.77-.89-5.71-.89-7.63,0-13.22,5.44-13.22,12.87,0,7.99,6.18,12.85,13.22,12.85,2.79,0,4.93-.66,5.71-.88v-6.66c-.28,.15-2.31,1.32-5.25,1.32-4.19,0-6.87-2.95-6.87-6.62s2.8-6.62,6.87-6.62c2.99,0,5,1.18,5.25,1.31v-6.66Zm85.12-.89c-7.64,0-13.12,5.76-13.12,12.87s5.48,12.85,13.12,12.85,13.12-5.76,13.12-12.85-5.49-12.87-13.12-12.87m6.47,12.87c0,3.59-2.76,6.52-6.47,6.52s-6.47-2.93-6.47-6.52,2.74-6.54,6.47-6.54,6.47,2.92,6.47,6.54m-52.95-12.08c-.17-.06-3.06-.8-6.1-.8-5.78,0-9.27,3.14-9.27,7.77,0,4.11,2.93,6.17,6.41,7.27,.41,.12,.97,.3,1.36,.43,1.55,.49,2.79,1.22,2.79,2.48,0,1.4-1.45,2.3-4.58,2.3-2.71,0-5.35-.76-5.91-.91v5.72c.31,.07,3.42,.67,6.76,.67,4.8,0,10.27-2.09,10.27-8.35,0-3-1.84-5.78-5.91-7.09l-1.73-.53c-1.02-.34-2.87-.84-2.87-2.39,0-1.19,1.37-2.04,3.89-2.04,2.16,0,4.81,.76,4.89,.77v-5.3Z"/></g></g></svg>