<?xml version="1.0" encoding="UTF-8"?><svg id="Layer_2" xmlns="http://www.w3.org/2000/svg" viewBox="0 0 95.26 90"><defs><style>.cls-1{fill:#19aaf8;fill-rule:evenodd;}</style></defs><g id="Layer_1-2"><path class="cls-1" d="M48.15,27.52c1.36,.21,1.64-.07,1.82-1.39,.3-2.02,1-5.42,2.65-8.92,1.78-3.76,4.63-7.9,8.6-10.67,3.35-2.3,8.83-4.85,13.08-5.78C77.77,0,81.03-.14,83.82,.12c5.74,.53,8.92,2.21,10.51,4.38,.59,.81,.91,1.81,.93,2.46,.05,1.08-.41,2.49-1.93,3.88-1.47,1.33-4.61,3.02-8.9,4.5-4.45,1.52-10.52,3.12-16.58,4.55-5.07,1.2-7.96,2.22-10.37,3.06-4.01,1.39-5.22,5.49-2.72,6.74,3.61,1.81,5.87,3.69,7.79,5.3,2.89,2.43,6.24,5.29,10.4,10.44,3.77,4.73,9.94,13.74,12.16,22.5,2.46,9.61,.92,18.73-4.38,21.27-5.2,2.5-12.12-1.11-16.98-6.28-4.62-4.91-7.85-10.69-10.89-19.61-2.63-7.67-3.7-18.78-3.69-24.6,0-1.94-.03-2.35,.05-4.1,.18-1.52-3.83-2.79-8.13,.06-4.9,3.23-9.7,9.1-12.53,12.5-1.23,1.49-2.9,3.67-4.67,5.96-2.33,3-4.91,6.13-7.26,7.88-3.53,2.64-9.21,3.74-13.19,.83C1.22,60.21,.04,57.14,0,54.03c-.03-2.19,.5-4.17,1.56-6.13,1.33-2.4,3.53-4.98,7-7.93,3.6-3.03,9.34-6.46,15.09-8.83,8.78-3.62,18.23-4.77,24.49-3.61"/></g></svg>