<?xml version="1.0" encoding="UTF-8"?><svg id="Layer_2" xmlns="http://www.w3.org/2000/svg" viewBox="0 0 102.64 90"><g id="Layer_1-2"><g><path d="M65.77,19.12l-32.59,10.84c-3.09,1.03-4.77,4.39-3.74,7.48h0c1.03,3.09,4.39,4.77,7.48,3.74l32.59-10.84c3.09-1.03,4.77-4.39,3.74-7.48h0c-1.03-3.09-4.39-4.77-7.48-3.74Z"/><path d="M65.77,.3L33.18,11.15c-3.09,1.03-4.77,4.39-3.74,7.48h0c1.03,3.09,4.39,4.77,7.48,3.74l32.59-10.84c3.09-1.03,4.77-4.39,3.74-7.48h0c-1.03-3.09-4.39-4.77-7.48-3.74Z"/><path d="M65.77,37.93l-32.64,10.84c-3.09,1.03-4.77,4.39-3.74,7.48h0c1.03,3.09,4.39,4.77,7.48,3.74l32.59-10.84c3.09-1.03,4.77-4.39,3.74-7.48h0c-.98-3.09-4.34-4.77-7.43-3.74Z"/><polygon points="3.96 83.86 10.9 83.86 10.9 80.71 3.96 80.71 3.96 78.06 11.17 78.06 11.17 75.02 0 75.02 0 89.66 11.28 89.66 11.28 86.57 3.96 86.57 3.96 83.86"/><rect x="28.58" y="75.02" width="3.96" height="14.64"/><path d="M38.55,82.23c.11-4.88,4.99-5.48,8.24-3.63l.27-3.14h0c-5.58-2.11-12.58-.22-12.58,6.72-.05,7.1,6.89,8.95,12.63,7.1l-.22-3.2c-3.25,1.74-8.4,1.03-8.35-3.85Z"/><path d="M52.7,78.87c0-1.74,3.8-1.68,5.8-.6l.27-3.04h0c-4.83-1.46-10.14-.33-10.14,3.96,0,5.21,6.83,3.9,6.83,6.24,0,2.11-3.74,1.84-6.34,.65l-.27,3.25c4.18,1.25,10.63,1.19,10.63-4.23s-6.78-3.63-6.78-6.24Z"/><path d="M64.74,78.87c0-1.74,3.8-1.68,5.8-.6l.27-3.04h0c-4.83-1.46-10.14-.33-10.14,3.96,0,5.21,6.83,3.9,6.83,6.24,0,2.11-3.74,1.84-6.34,.65l-.33,3.25c4.18,1.25,10.68,1.19,10.68-4.23,0-5.48-6.78-3.63-6.78-6.24Z"/><polygon points="99.01 75.02 99.01 84.46 94.18 75.02 89.14 75.02 89.14 89.66 92.83 89.66 92.83 80.01 97.87 89.66 102.64 89.66 102.64 75.02 99.01 75.02"/><path d="M79.92,74.64c-4.12,0-7.27,2.44-7.27,7.7s3.14,7.65,7.27,7.65,7.27-2.6,7.27-7.65c.05-5.26-3.09-7.7-7.27-7.7Zm0,12.47c-2.22,0-3.2-2.55-3.2-4.77s.98-4.77,3.2-4.77,3.2,2.71,3.2,4.77c0,2.22-.92,4.77-3.2,4.77Z"/><path d="M23.37,82.45c1.68-.49,2.55-1.57,2.55-3.52,0-3.04-2.71-3.9-4.66-3.9h-7.16v14.64h3.9v-5.53c0-.05,.98,0,1.57,0,.7,0,1.19,.43,1.46,1.14l1.52,4.39h4.23s-2.06-5.69-2.06-5.75c-.43-1.08-1.3-1.46-1.36-1.46Zm-3.31-1.3h-2.17v-3.25h2.22c1.03,0,1.79,.65,1.79,1.63,.05,1.08-.87,1.68-1.84,1.63Z"/></g></g></svg>