<?xml version="1.0" encoding="UTF-8"?><svg id="Layer_2" xmlns="http://www.w3.org/2000/svg" viewBox="0 0 182.88 23.77"><defs><style>.cls-1{fill:#c74634;}</style></defs><g id="Layer_1-2"><path class="cls-1" d="M79.12,15.45h12.06l-6.37-10.29-11.71,18.58h-5.33L82.02,1.45c1.07-1.54,3.19-1.91,4.73-.84,.31,.22,.59,.49,.81,.8l14.29,22.33h-5.33l-2.51-4.15h-12.2l-2.66-4.14m55.34,4.14V.23h-4.53V21.5c0,.6,.24,1.17,.67,1.58,.43,.44,1.03,.69,1.65,.69h20.58l2.68-4.15h-21.08m-74.82-3.48c4.39,0,7.95-3.56,7.95-7.95S64.04,.23,59.65,.23h-19.79V23.75h4.52V4.39h14.99c2.1,0,3.81,1.7,3.81,3.81s-1.7,3.81-3.81,3.81h-12.75l13.5,11.74h6.56l-9.07-7.61h2.03M12.07,23.75h13.67c6.49-.17,11.62-5.57,11.45-12.06C37.02,5.43,31.99,.4,25.73,.23H12.07C5.57,.06,.17,5.19,0,11.68c-.17,6.49,4.96,11.89,11.45,12.06,.2,0,.41,0,.61,0m13.36-4.14H12.37c-4.2-.14-7.5-3.65-7.36-7.86,.13-4.01,3.35-7.23,7.36-7.36h13.06c4.2-.14,7.72,3.16,7.86,7.36,.14,4.2-3.16,7.72-7.36,7.86-.16,0-.33,0-.49,0m85.86,4.14h13.95l2.64-4.14h-16.29c-4.2,.14-7.72-3.16-7.86-7.36-.14-4.2,3.16-7.72,7.36-7.86,.16,0,.33,0,.49,0h13.26L127.53,.23h-16.24c-6.49-.17-11.89,4.96-12.06,11.45-.17,6.49,4.96,11.89,11.45,12.06,.2,0,.41,0,.61,0m55.3-4.14c-3.41,0-6.4-2.26-7.33-5.54h19.33l2.66-4.15h-21.99c.93-3.28,3.92-5.54,7.33-5.54h13.26l2.65-4.15h-16.22c-6.49,.17-11.62,5.57-11.45,12.06,.16,6.26,5.2,11.29,11.45,11.45h13.95l2.65-4.14h-16.3"/></g></svg>